<?xml version="1.0" encoding="UTF-8" standalone="no"?>
<svg
 xmlns:dc="http://purl.org/dc/elements/1.1/"
 xmlns:rdf="http://www.w3.org/1999/02/22-rdf-syntax-ns#"
 xmlns:svg="http://www.w3.org/2000/svg"
 xmlns="http://www.w3.org/2000/svg"
 version="1.1"
 width="700" height="400">
 <path id="border" style="fill:#000000;fill-opacity:1;"
 d="m 433.75,1.21875 c -1.58258,0.030032 -2.93413,0.2336493 -4.1875,0.5 l -0.0313,0 -73.25,15.59375 -0.0313,0 c -1.7863,0.381451 -3.83735,1.0672 -5.90625,2.15625 -0.12738,-0.01049 -0.2828,-0.05557 -0.40625,-0.0625 -2.31138,-0.129789 -4.24905,0.136502 -5.8125,0.46875 l -0.0313,0 -73.28125,15.59375 -0.0313,0 c -3.2179,0.687158 -7.23964,2.119479 -10.8125,5.75 -1.5371,1.56191 -2.71732,3.543922 -3.625,5.59375 -5.8826,-2.22737 -12.20066,-3.314809 -18.5625,-3.1875 -4.07152,0.08148 -8.12482,0.606948 -12.1875,1.46875 -0.0102,0.0022 -0.0211,-0.0022 -0.0313,0 l -5.5,1.15625 -0.0313,0 c -10.5641,2.24558 -20.28634,6.93302 -28.53125,13.5625 -3.62266,-3.030955 -8.10957,-4.3559 -11.21875,-4.46875 -1.42598,-0.05176 -2.34705,0.04843 -2.8125,0.09375 -1.66087,0.161719 -2.35956,0.381091 -2.625,0.4375 l -0.0313,0 -33.75,7.1875 -0.0313,0 c -10.54147,2.245429 -20.2454,6.928136 -28.5,13.5625 -3.51815,-2.946907 -7.8196,-4.267691 -10.84375,-4.4375 -2.311298,-0.12978 -4.249054,0.136504 -5.8125,0.46875 l -0.03125,0 -33.75,7.1875 -0.03125,0 c -13.089141,2.788108 -24.999541,9.171086 -34.28125,18.625 -9.273495,9.44579 -15.312515,21.70915 -15.3125,34.625 l 0,9.96875 c -8e-6,3.25507 0.989196,6.59337 2.34375,9.8125 -1.477432,2.9704 -2.343764,6.22355 -2.34375,8.9375 l 0,52.09375 c -10e-6,1.91389 0.62007,4.5691 1.75,7.21875 -1.165452,2.86486 -1.75001,5.82033 -1.75,8.3125 l 0,41.90625 c -1.6e-5,4.14098 1.44162,11.11522 7.375,15.625 4.148663,3.15327 8.508752,3.83648 12.09375,3.71875 l 0,7.9375 -2.5,0.53125 c -3.854479,0.81939 -8.630351,2.89865 -12.125,7.03125 -3.494649,4.1326 -4.843766,9.54643 -4.84375,13.6875 l 0,59.5 c -1.6e-5,4.14103 1.441827,11.11536 7.375,15.625 5.933173,4.50964 12.351003,4.10337 16.21875,3.28125 l 0.03125,0 43.15625,-9.1875 c 0.0092,-0.002 0.02207,0.002 0.03125,0 3.8497,-0.8234 8.607423,-2.90848 12.09375,-7.03125 3.494641,-4.1326 4.843656,-9.54655 4.84375,-13.6875 l 0,-59.5 c -3.7e-5,-1.60888 -0.351893,-3.68984 -0.96875,-5.84375 5.22492,-1.50337 10.21146,-3.70148 14.78125,-6.65625 -0.13001,0.96853 -0.25,1.9332 -0.25,2.8125 l 0,59.5 c -1e-5,4.14104 1.44183,11.11537 7.375,15.625 5.93317,4.50963 12.351,4.10337 16.21875,3.28125 l 0.0313,0 43.15625,-9.1875 c 0.009,-0.002 0.0221,0.002 0.0313,0 2.07839,-0.44454 4.39705,-1.3219 6.65625,-2.625 0.007,-0.004 0.0239,0.004 0.0313,0 2.82976,0.35626 5.39191,0.0645 7.3125,-0.34375 l 0.0313,0 83.375,-17.75 c 0.009,-0.002 0.022,0.002 0.0313,0 3.79522,-0.81165 8.5157,-2.8499 12.03125,-6.96875 2.12503,-2.4897 3.39236,-5.44098 4.125,-8.3125 10.88182,5.4918 23.74132,6.8084 36.21875,4.15625 l 0.0313,0 44.875,-9.5625 c 0.009,-0.002 0.022,0.002 0.0313,0 2.05755,-0.44004 4.39581,-1.29809 6.65625,-2.59375 2.80336,0.34425 5.33122,0.0641 7.25,-0.34375 l 0.0313,0 43.15625,-9.1875 c 0.009,-0.002 0.022,0.002 0.0313,0 3.8497,-0.8234 8.60742,-2.90848 12.09375,-7.03125 3.49464,-4.1326 4.84366,-9.54655 4.84375,-13.6875 l 0,-0.375 c 12.00073,8.9751 27.7762,11.51824 42.9375,8.34375 l 0.1875,-0.0313 1.53125,-0.3125 0.0937,-0.0313 0.0937,0 c 2.08974,-0.44419 4.44108,-1.33539 6.71875,-2.65625 0.007,-0.004 0.0238,0.004 0.0313,0 2.81641,0.35076 5.35492,0.0657 7.28125,-0.34375 l 0.0313,0 43.15625,-9.1875 c 0.009,-0.002 0.0221,0.002 0.0313,0 2.06879,-0.44243 4.41544,-1.31679 6.6875,-2.625 2.82947,0.35733 5.37862,0.0673 7.3125,-0.34375 l 0.0313,0 43.15625,-9.1875 c 0.009,-0.002 0.0221,0.002 0.0313,0 3.37275,-0.72139 7.39035,-2.50675 10.6875,-5.6875 4.57544,1.85787 9.01569,1.50269 11.96875,0.875 l 0.0313,0 43.15625,-9.1875 c 0.009,-0.002 0.0221,0.002 0.0313,0 3.84972,-0.82341 8.60749,-2.90856 12.09375,-7.03125 3.49457,-4.13252 4.84356,-9.54663 4.84375,-13.6875 l 0,-59.5 c -1.9e-4,-4.14098 -1.4422,-11.11567 -7.375,-15.625 -4.14826,-3.15296 -8.50893,-3.83627 -12.09375,-3.71875 l 0,-7.9375 2.5,-0.53125 c 3.8548,-0.81922 8.63032,-2.8986 12.125,-7.03125 3.49468,-4.13265 4.84356,-9.54669 4.84375,-13.6875 l 0,-41.875 c -1.7e-4,-3.630847 -0.80009,-9.089612 -5.28125,-13.75 -4.48116,-4.660388 -11.11594,-5.926143 -15.1875,-5.625 -1.42856,0.105661 -2.40299,0.315319 -3.125,0.46875 l -26.09375,5.53125 c -9.32582,1.983041 -14.24357,10.0118 -16.125,15.625 l -0.0313,0.03125 -10.125,30.28125 -8.09375,-20.75 C 602.3073,101.6235 600.5409,98.056367 596.4375,94.9375 592.3341,91.818633 585.65247,90.504849 580.96875,91.5 l -0.0313,0 -26.0625,5.5625 -0.0313,0 c -2.116,0.452643 -4.5233,1.357007 -6.84375,2.71875 -1.46879,-0.209313 -2.86882,-0.304727 -4.03125,-0.21875 -1.42887,0.105666 -2.40321,0.315372 -3.125,0.46875 l -0.0313,0 -43.15625,9.1875 -0.0313,0 c -3.84944,0.82356 -8.6075,2.90858 -12.09375,7.03125 -1.11285,1.316 -1.92014,2.78997 -2.625,4.28125 -5.63065,-2.4084 -11.75834,-3.72694 -17.84375,-3.5625 -3.08431,0.0833 -6.1661,0.46955 -9.25,1.125 l -0.0313,0 -21.46875,4.5625 0,-34.3125 c -7e-5,-1.670502 -0.55198,-3.919883 -1.40625,-6.21875 l 3.28125,-0.71875 c 0.009,-0.0018 0.0226,0.0018 0.0313,0 3.26771,-0.69767 7.29953,-2.180544 10.84375,-5.78125 3.55354,-3.610173 5.53105,-9.28501 5.53125,-13.65625 l 0,-42.40625 c -1.5e-4,-3.285496 -0.92461,-8.253474 -4.625,-12.375 C 444.26836,3.065974 438.92886,1.4477981 435.40625,1.25 434.81833,1.2169885 434.27753,1.2087392 433.75,1.21875 z"/>
 <g style="fill:#ffe600;fill-opacity:1" transform="translate(1.2207555,0.23438111)">
 <path id="s"
 d="m 101.65182,171.06816 c -8e-5,8.33299 -3.569325,16.13496 -10.70774,23.40596 -7.138562,7.27104 -15.877057,12.00531 -26.21551,14.2028 l -33.784778,7.18115 c -2.461561,0.52322 -3.692335,-0.20718 -3.692325,-2.19123 l 0,-52.0809 c -1e-5,-1.98398 1.230764,-3.2376 3.692325,-3.76088 l 3.507709,-0.74558 c 2.461532,-0.52315 3.692305,0.20725 3.692325,2.19123 l 0,0.44641 c -2e-5,1.68648 0.676905,2.98102 2.030779,3.88362 1.476907,0.77734 3.261529,0.94362 5.353873,0.49883 l 35.077091,-7.45584 c 2.092252,-0.44467 3.815335,-1.35653 5.169255,-2.73558 1.476861,-1.50428 2.215325,-3.09967 2.215395,-4.78617 l 0,-1.33923 c -7e-5,-1.98395 -1.230844,-2.71436 -3.692325,-2.19122 l -38.5848,8.20142 c -5.046201,1.07266 -9.415449,0.56294 -13.107755,-1.52915 -3.56926,-2.21731 -5.353882,-5.35964 -5.353872,-9.42699 l 0,-9.96977 c -1e-5,-8.33285 3.569235,-16.13482 10.707743,-23.40596 7.138469,-7.27091 15.876964,-12.005168 26.215511,-14.202802 l 33.784777,-7.181147 c 2.461472,-0.523083 3.692242,0.207321 3.692322,2.191228 l 0,38.688671 c -8e-5,1.98412 -1.23085,3.23774 -3.692322,3.76088 l -7.384651,1.56965 c -2.461621,0.52329 -3.692395,-0.20711 -3.692325,-2.19123 -7e-5,-1.68634 -0.738534,-2.8686 -2.215395,-3.54678 -1.353918,-0.80335 -3.077002,-0.98271 -5.169256,-0.53807 l -31.200149,6.63177 c -2.092346,0.44482 -3.876969,1.41936 -5.353872,2.92363 -1.353877,1.37906 -2.030803,2.91178 -2.030779,4.59813 l 0,1.33922 c -2.4e-5,1.9841 1.23075,2.71451 3.692325,2.19122 l 38.5848,-8.20142 c 5.046108,-1.07251 9.353817,-0.50011 12.92314,1.7172 3.692243,2.0921 5.538404,5.17174 5.538484,9.23894 l 0,22.61799"/>
 <path id="c"
 d="m 180.62544,181.06633 c -9e-5,1.98406 -1.23086,3.23768 -3.69233,3.76088 l -33.78477,7.18114 c -10.33855,2.19752 -19.07705,1.17809 -26.21551,-3.05828 -7.13851,-4.23636 -10.70776,-10.52101 -10.70775,-18.85398 l 0,-54.01534 c -1e-5,-8.33285 3.56924,-16.134828 10.70775,-23.405963 7.13846,-7.270912 15.87696,-12.005168 26.21551,-14.202802 l 33.78477,-7.181148 c 2.46147,-0.523083 3.69224,0.207322 3.69233,2.191228 l 0,38.688675 c -9e-5,1.98412 -1.23086,3.23774 -3.69233,3.76088 l -7.38465,1.56965 c -2.46161,0.52329 -3.69239,-0.20711 -3.69233,-2.19123 -6e-5,-1.68634 -0.73853,-2.86861 -2.21538,-3.54678 -1.35393,-0.80336 -3.07701,-0.98271 -5.16926,-0.53807 l -31.20015,6.63177 c -2.09235,0.44482 -3.87697,1.41936 -5.35388,2.92363 -1.35387,1.37906 -2.0308,2.91177 -2.03077,4.59812 l 0,16.9635 c -3e-5,1.68648 0.6769,2.98102 2.03077,3.88362 1.47691,0.77734 3.26153,0.94362 5.35388,0.49882 l 35.07709,-7.45583 c 2.09225,-0.44467 3.81533,-1.35653 5.16926,-2.73558 1.47685,-1.50428 2.21531,-3.09967 2.21539,-4.78617 l 0,-3.42247 c -8e-5,-1.98395 1.2307,-3.23758 3.69233,-3.76086 l 3.5077,-0.74559 c 2.46147,-0.52314 3.69224,0.20727 3.69233,2.19122 l 0,55.05696"/>
 <path id="o"
 d="m 264.5837,136.43606 c -9e-5,8.33299 -3.56934,16.13496 -10.70775,23.40596 -7.13857,7.27104 -15.87706,12.00531 -26.21551,14.2028 l -5.53848,1.17724 c -10.33855,2.19752 -19.07704,1.17809 -26.21551,-3.05829 -7.13852,-4.23635 -10.70776,-10.521 -10.70775,-18.85397 l 0,-54.015346 c -1e-5,-8.332848 3.56923,-16.134825 10.70775,-23.405962 7.13847,-7.270911 15.87696,-12.005167 26.21551,-14.202802 l 5.53848,-1.177235 c 10.33845,-2.19738 19.07694,-1.177957 26.21551,3.058288 7.13841,4.236494 10.70766,10.521144 10.70775,18.853975 l 0,54.015342 m -16.61547,-21.31832 0,-16.96349 c -7e-5,-1.686341 -0.73854,-2.918207 -2.2154,-3.69558 -1.35392,-0.902557 -3.077,-1.131517 -5.16925,-0.686878 l -31.38477,6.671008 c -2.09235,0.44483 -3.87697,1.41937 -5.35387,2.92363 -1.35388,1.37906 -2.0308,2.91178 -2.03078,4.59813 l 0,16.96349 c -2e-5,1.68649 0.6769,2.98103 2.03078,3.88362 1.4769,0.77735 3.26152,0.94363 5.35387,0.49883 l 31.38477,-6.67101 c 2.09225,-0.44467 3.81533,-1.35653 5.16925,-2.73558 1.47686,-1.50428 2.21533,-3.09967 2.2154,-4.78617"/>
 <path id="t"
 d="m 349.89773,79.911007 c -1e-4,1.984126 -1.23087,3.237745 -3.69232,3.760879 l -3.50772,0.745585 c -2.46163,0.523295 -3.69241,-0.207107 -3.69232,-2.19123 l 0,-3.422457 c -9e-5,-1.686336 -0.73854,-2.918204 -2.21539,-3.695579 -1.35393,-0.902556 -3.07702,-1.131513 -5.16926,-0.686877 l -9.41543,2.001303 c -2.09238,0.444829 -3.87701,1.419371 -5.35387,2.923628 -1.35392,1.379071 -2.03084,2.911786 -2.03079,4.598129 l 0,16.963492 c -5e-5,1.6865 0.67687,2.98103 2.03079,3.88362 1.47686,0.77735 3.26149,0.94363 5.35387,0.49883 l 5.7231,-1.21648 c 2.46148,-0.52315 3.69225,0.20726 3.69233,2.19123 l 0,42.70634 c -8e-5,1.98406 -1.23085,3.23768 -3.69233,3.76088 l -37.29248,7.92673 c -2.46158,0.52322 -3.69236,-0.20718 -3.69233,-2.19123 l 0,-42.70634 c -3e-5,-1.98398 1.23075,-3.2376 3.69233,-3.76088 l 6.27694,-1.3342 c 2.09229,-0.44467 3.81537,-1.35653 5.16926,-2.73558 1.47689,-1.50429 2.21535,-3.09968 2.2154,-4.78617 l 0,-16.963491 c -5e-5,-1.686346 -0.73851,-2.918212 -2.2154,-3.695579 -1.35389,-0.902563 -3.07697,-1.131522 -5.16926,-0.686877 l -9.41543,2.001303 c -2.09233,0.44482 -3.87696,1.419362 -5.35386,2.923628 -1.35388,1.379061 -2.0308,2.911776 -2.03078,4.598127 l 0,3.422456 c -2e-5,1.984109 -1.2308,3.23773 -3.69233,3.760879 l -3.50771,0.745585 c -2.46156,0.523281 -3.69233,-0.207124 -3.69232,-2.19123 l 0,-42.408735 c -10e-6,-1.983922 1.23076,-3.237541 3.69232,-3.760876 l 73.29267,-15.578775 c 2.46145,-0.523081 3.69222,0.207324 3.69232,2.191228 l 0,42.408734"/>
 <path id="t2"
 d="m 435.36177,61.745138 c -9e-5,1.984123 -1.23086,3.237742 -3.69233,3.760878 l -3.5077,0.745583 c -2.46163,0.523296 -3.69241,-0.207107 -3.69233,-2.191228 l 0,-3.422456 c -8e-5,-1.686339 -0.73854,-2.918205 -2.2154,-3.69558 -1.35392,-0.902555 -3.07701,-1.131515 -5.16924,-0.686878 l -9.41544,2.001305 c -2.09237,0.444826 -3.877,1.419369 -5.35387,2.923627 -1.35391,1.379069 -2.03083,2.911784 -2.03078,4.598128 l 0,16.963493 c -5e-5,1.686493 0.67687,2.981033 2.03078,3.88362 1.47687,0.777352 3.2615,0.943629 5.35387,0.49883 l 5.72311,-1.216481 c 2.46148,-0.523148 3.69225,0.207257 3.69233,2.191228 l 0,42.706343 c -8e-5,1.98406 -1.23085,3.23767 -3.69233,3.76088 l -37.29249,7.92673 c -2.46157,0.52322 -3.69235,-0.20718 -3.69233,-2.19123 l 0,-42.70634 c -2e-5,-1.983982 1.23076,-3.237603 3.69233,-3.760878 l 6.27695,-1.334203 c 2.09228,-0.444672 3.81537,-1.356532 5.16926,-2.73558 1.47689,-1.504288 2.21535,-3.099677 2.2154,-4.786168 l 0,-16.963494 c -5e-5,-1.686346 -0.73851,-2.918211 -2.2154,-3.695579 -1.35389,-0.902562 -3.07698,-1.131522 -5.16926,-0.686876 l -9.41543,2.001303 c -2.09235,0.444821 -3.87697,1.419364 -5.35387,2.923627 -1.35387,1.379062 -2.0308,2.911779 -2.03078,4.59813 l 0,3.422456 c -2e-5,1.984109 -1.23079,3.237728 -3.69233,3.760879 l -3.5077,0.745582 c -2.46156,0.523282 -3.69234,-0.207121 -3.69233,-2.191228 l 0,-42.408734 c -10e-6,-1.983923 1.23077,-3.237544 3.69233,-3.760879 l 73.29265,-15.578773 c 2.46147,-0.523082 3.69224,0.207322 3.69233,2.191228 l 0,42.408735"/>
 <path id="p"
 d="m 119.20039,250.31777 c -1.1e-4,8.57158 -3.13635,16.56539 -9.40873,23.98148 -6.27258,7.41632 -13.828062,12.06376 -22.666483,13.94233 l -23.949487,5.0906 c -2.851174,0.60612 -4.276738,2.29162 -4.276694,5.0565 l 0,2.07375 c -4.4e-5,2.35031 0.784017,4.18827 2.352182,5.51386 1.71063,1.1572 3.777697,1.4782 6.201206,0.963 l 7.27038,-1.54536 c 2.851068,-0.60594 4.276632,0.47354 4.276695,3.23844 l 0,59.51622 c -6.3e-5,2.76499 -1.425627,4.45049 -4.276695,5.0565 l -43.19461,9.18126 c -2.851143,0.60603 -4.276706,-0.47345 -4.276695,-3.23843 l 0,-59.51622 c -1.1e-5,-2.76491 1.425552,-4.45041 4.276695,-5.05651 l 6.628876,-1.409 c 2.423434,-0.51505 4.419223,-1.69963 5.987371,-3.55376 1.710648,-2.02252 2.565986,-4.20894 2.566016,-6.55925 l 0,-23.64059 c -3e-5,-2.35012 -0.855368,-4.10381 -2.566016,-5.26104 -1.568148,-1.32557 -3.563937,-1.73084 -5.987371,-1.21583 l -6.628876,1.40901 c -2.851143,0.60613 -4.276706,-0.47335 -4.276695,-3.23844 l 0,-41.88946 c -1.1e-5,-2.76483 1.425552,-4.45033 4.276695,-5.05651 l 55.597023,-11.81747 c 8.838421,-1.8785 16.393903,-0.44298 22.666483,4.30655 6.27238,4.74987 9.40862,11.41044 9.40873,19.98171 l 0,13.68666 m -23.30799,16.15243 0,-1.659 c -8e-5,-2.76485 -1.425643,-3.84433 -4.276694,-3.23843 l -28.440016,6.04509 c -2.851174,0.60614 -4.276738,2.29164 -4.276694,5.0565 l 0,5.80646 c -4.4e-5,2.76509 1.42552,3.84457 4.276694,3.23844 l 24.163322,-5.13605 c 2.423386,-0.51501 4.419174,-1.6996 5.987372,-3.55376 1.710598,-2.02249 2.565936,-4.2089 2.566016,-6.55925"/>
 <path id="i"
 d="m 176.31894,347.46278 c -6e-5,2.76499 -1.42562,4.45049 -4.2767,5.0565 l -43.19461,9.18126 c -2.85114,0.60603 -4.2767,-0.47345 -4.27669,-3.23843 l 0,-59.51622 c -10e-6,-2.76491 1.42555,-4.45041 4.27669,-5.05651 l 6.62888,-1.409 c 2.42343,-0.51505 4.41922,-1.69963 5.98737,-3.55376 1.71065,-2.02252 2.56598,-4.20894 2.56602,-6.55926 l 0,-23.64059 c -4e-5,-2.35012 -0.85537,-4.1038 -2.56602,-5.26103 -1.56815,-1.32557 -3.56394,-1.73084 -5.98737,-1.21583 l -6.62888,1.409 c -2.85114,0.60614 -4.2767,-0.47335 -4.27669,-3.23843 l 0,-41.88946 c -10e-6,-2.76483 1.42555,-4.45033 4.27669,-5.05651 l 43.19461,-9.18127 c 2.85108,-0.60585 4.27664,0.47363 4.2767,3.23844 l 0,41.88946 c -6e-5,2.7651 -1.42562,4.45061 -4.2767,5.05651 l -7.27038,1.54536 c -2.4235,0.51524 -4.49057,1.7841 -6.2012,3.80659 -1.56817,1.85416 -2.35222,3.9563 -2.35218,6.30642 l 0,23.64059 c -4e-5,2.35032 0.78401,4.18827 2.35218,5.51387 1.71063,1.1572 3.7777,1.4782 6.2012,0.963 l 7.27038,-1.54536 c 2.85108,-0.60594 4.27664,0.47353 4.2767,3.23844 l 0,59.51622"/>
 <path id="l"
 d="m 273.74534,326.75424 c -1.1e-4,2.765 -1.42567,4.4505 -4.27669,5.0565 l -83.39555,17.7262 c -2.85113,0.60602 -4.27669,-0.47345 -4.27668,-3.23843 l 0,-59.51622 c -1e-5,-2.76492 1.42555,-4.45042 4.27668,-5.05651 l 6.62888,-1.40901 c 2.42344,-0.51504 4.41923,-1.69962 5.98738,-3.55375 1.71064,-2.02252 2.56598,-4.20894 2.56601,-6.55926 l 0,-23.64059 c -3e-5,-2.35012 -0.85537,-4.1038 -2.56601,-5.26103 -1.56815,-1.32557 -3.56394,-1.73084 -5.98738,-1.21583 l -6.62888,1.409 c -2.85113,0.60614 -4.27669,-0.47335 -4.27668,-3.23844 l 0,-41.88946 c -1e-5,-2.76482 1.42555,-4.45032 4.27668,-5.05651 l 43.19462,-9.18126 c 2.85107,-0.60585 4.27663,0.47362 4.27669,3.23844 l 0,41.88946 c -6e-5,2.7651 -1.42562,4.45061 -4.27669,5.05651 l -7.27038,1.54536 c -2.42351,0.51524 -4.49058,1.7841 -6.2012,3.80658 -1.56818,1.85417 -2.35223,3.95631 -2.35219,6.30643 l 0,23.64059 c -4e-5,2.35032 0.78401,4.18827 2.35219,5.51386 1.71062,1.15721 3.77769,1.47821 6.2012,0.96301 l 30.57837,-6.49961 c 2.42337,-0.51503 4.41915,-1.69961 5.98737,-3.55375 1.71058,-2.02251 2.56592,-4.20893 2.56601,-6.55926 l 0,-4.76959 c -9e-5,-2.76488 1.42547,-4.45038 4.2767,-5.05651 l 4.06286,-0.86359 c 2.85102,-0.60591 4.27658,0.47356 4.27669,3.23844 l 0,76.72823"/>
 <path id="g"
 d="m 371.06481,306.06843 c -1e-4,2.76499 -1.42566,4.45049 -4.27668,5.0565 l -44.9053,9.54487 c -11.97479,2.54531 -22.09628,0.68748 -30.36453,-5.57351 -8.26829,-6.26095 -12.40242,-15.19789 -12.40241,-26.81084 l 0,-75.27661 c -10e-6,-11.61279 4.13412,-22.30719 12.40241,-32.08325 8.26825,-9.77575 18.38974,-15.93635 30.36453,-18.48182 l 44.9053,-9.54488 c 2.85102,-0.60584 4.27658,0.47363 4.27668,3.23844 l 0,41.88946 c -1e-4,2.76511 -1.42566,4.45062 -4.27668,5.05651 l -63.29508,13.45373 c -2.42349,0.51524 -4.49056,1.78409 -6.20121,3.80659 -1.56814,1.85415 -2.35221,3.9563 -2.35218,6.30642 l 0,23.64059 c -3e-5,2.35032 0.78404,4.18827 2.35218,5.51387 1.71065,1.1572 3.77772,1.47819 6.20121,0.963 l 46.40213,-9.86304 c 2.42338,-0.51503 4.41917,-1.69962 5.98737,-3.55376 1.7106,-2.02251 2.56593,-4.20892 2.56602,-6.55925 l 0,-1.86637 c -9e-5,-2.76488 -1.42566,-3.84435 -4.2767,-3.23843 l -44.90528,9.54488 c -2.85117,0.60611 -4.27674,-0.47336 -4.2767,-3.23844 l 0,-3.31798 c -4e-5,-2.76487 1.42553,-4.45038 4.2767,-5.05651 l 57.52154,-12.22653 c 2.85102,-0.6059 4.27658,0.47358 4.27668,3.23844 l 0,85.43792"/>
 <path id="r"
 d="m 489.98162,280.79198 c -1.3e-4,2.765 -1.42569,4.4505 -4.27669,5.0565 l -1.71069,0.36361 c -11.97485,2.54533 -22.09634,0.6875 -30.36453,-5.57351 -8.26835,-6.26093 -12.40248,-15.19787 -12.40241,-26.81084 l 0,-23.64059 c -7e-5,-3.31789 -0.5703,-6.58379 -1.71067,-9.79769 -1.71075,-4.33676 -3.92037,-6.21732 -6.62888,-5.64169 l -20.52813,4.36337 c -2.85117,0.60611 -4.27674,2.29161 -4.2767,5.0565 l 0,2.07374 c -4e-5,2.35032 0.78402,4.18827 2.35218,5.51387 1.71064,1.1572 3.7777,1.4782 6.20121,0.963 l 7.27038,-1.54536 c 2.85107,-0.60594 4.27664,0.47353 4.2767,3.23844 l 0,59.51622 c -6e-5,2.76499 -1.42563,4.45049 -4.2767,5.0565 l -43.19461,9.18126 c -2.85114,0.60603 -4.27671,-0.47345 -4.2767,-3.23843 l 0,-59.51622 c -1e-5,-2.76491 1.42556,-4.45041 4.2767,-5.05651 l 6.62888,-1.409 c 2.42343,-0.51505 4.41922,-1.69963 5.98737,-3.55376 1.71065,-2.02252 2.56599,-4.20894 2.56602,-6.55925 l 0,-23.64059 c -3e-5,-2.35013 -0.85537,-4.10381 -2.56602,-5.26104 -1.56815,-1.32557 -3.56394,-1.73084 -5.98737,-1.21583 l -6.62888,1.40901 c -2.85114,0.60613 -4.27671,-0.47336 -4.2767,-3.23844 l 0,-41.88946 c -1e-5,-2.76483 1.42556,-4.45033 4.2767,-5.05651 l 77.19433,-16.4081 c 8.8384,-1.8785 16.39389,-0.44298 22.66648,4.30655 6.27237,4.74987 9.4086,11.41044 9.40873,19.98171 l 0,13.68666 c -1.3e-4,8.57158 -3.13636,16.56539 -9.40873,23.98148 -6.27259,7.41632 -13.82808,12.06376 -22.66648,13.94233 l -8.98105,1.90898 5.34586,8.81763 c 1.56803,2.70825 3.99149,3.71387 7.27038,3.01686 l 7.27038,-1.54537 c 2.42336,-0.51502 4.41915,-1.69961 5.98737,-3.55375 1.71057,-2.02251 2.56591,-4.20893 2.56602,-6.55926 l 0,-4.76959 c -1.1e-4,-2.76488 1.42545,-4.45038 4.27669,-5.05651 l 4.06287,-0.86359 c 2.851,-0.60591 4.27656,0.47357 4.27669,3.23844 l 0,76.72823 m -23.30798,-93.13346 0,-1.65899 c -10e-5,-2.76485 -1.42567,-3.84432 -4.2767,-3.23843 l -50.03732,10.63572 c -2.85117,0.60614 -4.27674,2.29164 -4.2767,5.0565 l 0,5.80646 c -4e-5,2.76509 1.42553,3.84457 4.2767,3.23844 l 45.76063,-9.72669 c 2.42336,-0.515 4.41915,-1.69959 5.98737,-3.55375 1.71058,-2.02249 2.56592,-4.2089 2.56602,-6.55926"/>
 <path id="i2"
 d="m 547.22045,268.62554 c -6e-5,2.76499 -1.42563,4.45049 -4.27669,5.0565 l -43.19461,9.18126 c -2.85114,0.60603 -4.27671,-0.47345 -4.2767,-3.23843 l 0,-59.51622 c -10e-6,-2.76491 1.42556,-4.45041 4.2767,-5.05651 l 6.62888,-1.409 c 2.42343,-0.51505 4.41921,-1.69963 5.98737,-3.55376 1.71064,-2.02252 2.56598,-4.20894 2.56601,-6.55925 l 0,-23.64059 c -3e-5,-2.35013 -0.85537,-4.10381 -2.56601,-5.26104 -1.56816,-1.32557 -3.56394,-1.73084 -5.98737,-1.21583 l -6.62888,1.409 c -2.85114,0.60614 -4.27671,-0.47335 -4.2767,-3.23843 l 0,-41.88946 c -10e-6,-2.76483 1.42556,-4.45033 4.2767,-5.05651 l 43.19461,-9.18127 c 2.85106,-0.60585 4.27663,0.47363 4.27669,3.23844 l 0,41.88946 c -6e-5,2.7651 -1.42563,4.45061 -4.27669,5.05651 l -7.27038,1.54536 c -2.42352,0.51524 -4.49057,1.7841 -6.20121,3.80659 -1.56816,1.85416 -2.35223,3.95631 -2.35219,6.30643 l 0,23.64059 c -4e-5,2.35031 0.78403,4.18826 2.35219,5.51386 1.71064,1.1572 3.77769,1.4782 6.20121,0.963 l 7.27038,-1.54536 c 2.85106,-0.60594 4.27663,0.47354 4.27669,3.23844 l 0,59.51622"/>
 <path id="m"
 d="m 670.30703,242.46278 c -1.3e-4,2.765 -1.42569,4.4505 -4.27669,5.0565 l -43.19461,9.18126 c -2.85121,0.60604 -4.27677,-0.47343 -4.2767,-3.23843 l 0,-59.51621 c -7e-5,-2.76491 1.42549,-4.45041 4.2767,-5.05651 l 7.27038,-1.54537 c 2.42336,-0.51503 4.41916,-1.69961 5.98737,-3.55375 1.71058,-2.02251 2.56592,-4.20893 2.56601,-6.55925 l 0,-28.20282 c -9e-5,-2.48835 -1.2831,-3.45987 -3.84902,-2.91458 -1.71077,0.36374 -2.85122,1.29739 -3.42136,2.80096 l -16.89294,40.08844 c -0.57029,1.22728 -1.56819,1.99238 -2.99369,2.29531 -1.42563,0.3031 -2.42352,-0.0378 -2.99368,-1.02266 l -16.89294,-32.90706 c -0.57027,-1.26116 -1.63945,-1.72515 -3.20752,-1.39195 -2.70862,0.57584 -4.06291,2.10793 -4.06286,4.5963 l 0,28.20281 c -5e-5,2.35032 0.78401,4.18827 2.35218,5.51386 1.71063,1.15721 3.77769,1.47821 6.20121,0.96301 l 7.27038,-1.54537 c 2.85106,-0.60594 4.27663,0.47354 4.27669,3.23844 l 0,59.51622 c -6e-5,2.76499 -1.42563,4.45049 -4.27669,5.0565 l -43.19461,9.18126 c -2.85114,0.60603 -4.27671,-0.47345 -4.2767,-3.23842 l 0,-59.51622 c -10e-6,-2.76492 1.42556,-4.45042 4.2767,-5.05651 l 6.62888,-1.40901 c 2.42343,-0.51504 4.41921,-1.69963 5.98737,-3.55376 1.71064,-2.02252 2.56598,-4.20894 2.56601,-6.55925 l 0,-23.64059 c -3e-5,-2.35012 -0.85537,-4.1038 -2.56601,-5.26104 -1.56816,-1.32556 -3.56394,-1.73083 -5.98737,-1.21583 l -6.62888,1.40901 c -2.85114,0.60613 -4.27671,-0.47335 -4.2767,-3.23844 l 0,-41.88946 c -10e-6,-2.76483 1.42556,-4.45033 4.2767,-5.05651 l 26.08783,-5.54512 c 1.8532,-0.39375 3.27876,0.68573 4.27669,3.23844 l 21.81115,55.917 c 0.4276,1.01519 1.21165,1.40154 2.35217,1.15902 1.14039,-0.2423 1.92445,-0.96196 2.35219,-2.15896 l 21.81114,-65.189163 c 0.9978,-2.976917 2.42336,-4.662417 4.2767,-5.056511 l 26.08783,-5.545118 c 2.851,-0.605839 4.27656,0.473637 4.27669,3.238438 l 0,41.889464 c -1.3e-4,2.76511 -1.42569,4.45062 -4.27669,5.05651 l -6.62888,1.409 c -2.42357,0.51526 -4.49064,1.78411 -6.2012,3.80658 -1.56824,1.85418 -2.35229,3.95633 -2.35219,6.30643 l 0,23.64059 c -10e-5,2.35033 0.78395,4.18829 2.35219,5.51386 1.71056,1.15723 3.77763,1.47822 6.2012,0.96301 l 6.62888,-1.40901 c 2.851,-0.60592 4.27656,0.47355 4.27669,3.23844 l 0,59.51622"/>
 </g>
</svg>
